<svg width="44" height="55" viewBox="0 0 44 55" fill="none" xmlns="http://www.w3.org/2000/svg">
<g clip-path="url(#clip0_0_198)">
<path d="M43.9721 19.5347C43.9721 19.8737 43.9852 20.211 43.9721 20.5483C43.9622 20.7305 43.8883 20.908 43.8653 21.0903C43.8193 21.4372 43.7816 21.7857 43.7553 22.1342C43.7175 22.6138 43.7076 23.0934 43.6584 23.573C43.6172 23.8293 43.5623 24.0833 43.4941 24.334C43.471 24.4393 43.4567 24.5462 43.4514 24.6538C43.4334 24.9911 43.4515 25.3316 43.2691 25.6433C43.2346 25.7331 43.2141 25.8274 43.2084 25.9231C43.1262 26.3148 43.0441 26.7081 42.9636 27.0997C42.9439 27.1941 42.9324 27.29 42.9094 27.3827C42.8585 27.5905 42.8027 27.7984 42.7452 28.0062C42.7074 28.1549 42.6746 28.3036 42.6302 28.4507C42.4808 28.9431 42.3264 29.4322 42.1736 29.9246C42.1506 29.9966 42.1326 30.0717 42.108 30.1437C42.0554 30.3035 41.9996 30.4538 41.9437 30.6073C41.9109 30.6984 41.8764 30.788 41.8451 30.8775C41.7729 31.079 41.7006 31.2819 41.63 31.4834C41.6087 31.5441 41.5939 31.6049 41.5709 31.6656C41.5167 31.8127 41.4608 31.9598 41.4066 32.1085C41.3705 32.2108 41.3327 32.3131 41.2999 32.4154C41.2835 32.4634 41.2835 32.5178 41.2638 32.5641C41.1291 32.8583 40.9927 33.1508 40.8564 33.445C40.8384 33.4849 40.822 33.5265 40.8022 33.5681L40.3013 34.6872C40.1863 34.9413 40.0779 35.1988 39.9547 35.4482C39.8135 35.7311 39.6558 36.0077 39.508 36.2875C39.3898 36.5129 39.2797 36.7415 39.1598 36.9669C39.0235 37.2243 38.8823 37.4817 38.741 37.7359C38.5998 37.9901 38.4766 38.2155 38.3386 38.4457C38.2007 38.6759 38.0512 38.9253 37.9067 39.1571C37.8032 39.3266 37.7014 39.4961 37.593 39.6623C37.4287 39.9069 37.2645 40.1419 37.1085 40.3945C36.9837 40.5992 36.895 40.823 36.7652 41.0244C36.6552 41.1955 36.5057 41.3442 36.3858 41.504C36.2363 41.7087 36.1017 41.9261 35.9555 42.1339C35.8405 42.2938 35.7141 42.4536 35.5958 42.6135C35.3445 42.9588 35.1031 43.3137 34.8436 43.6495C34.5529 44.0156 34.2376 44.3641 33.9353 44.7222C33.7366 44.9572 33.5461 45.2018 33.3474 45.4336C33.1486 45.6654 32.9088 45.9372 32.6904 46.1914C32.4473 46.4743 32.2174 46.7669 31.9645 47.0403C31.636 47.384 31.3075 47.7102 30.979 48.0443C30.6998 48.3305 30.4255 48.6215 30.1447 48.906C29.8343 49.2178 29.5189 49.5231 29.2069 49.8316C29.0525 49.9915 28.8981 50.1418 28.7421 50.2953C28.5565 50.4744 28.3676 50.6517 28.1804 50.8308C27.8519 51.1505 27.5234 51.4703 27.1949 51.7821C26.8664 52.0938 26.5281 52.3736 26.1865 52.6581C25.9336 52.8676 25.6708 53.0658 25.4014 53.2545C25.1928 53.4015 24.9695 53.5295 24.7445 53.659C24.5981 53.7613 24.4392 53.8456 24.2714 53.9099C24.0663 53.9816 23.8675 54.0693 23.6769 54.1721C23.342 54.3174 23.0182 54.4857 22.7079 54.6757C22.6553 54.7093 22.5814 54.7125 22.5239 54.7413C22.4205 54.794 22.3219 54.8564 22.2201 54.9123C22.1527 54.9491 22.0837 55.0082 22.0148 55.0098C21.7681 55.0297 21.5207 54.9803 21.302 54.8675C20.9845 54.7157 20.6549 54.5891 20.3165 54.4887C20.264 54.4695 20.1769 54.4711 20.1523 54.4359C20.1105 54.3673 20.0512 54.3103 19.9801 54.2706C19.909 54.2308 19.8286 54.2096 19.7466 54.2089C19.7334 54.2079 19.7205 54.204 19.7089 54.1977C19.5134 54.0698 19.3163 53.9435 19.1209 53.814C18.9254 53.6845 18.7431 53.5694 18.5657 53.4335C18.3161 53.2401 18.073 53.0354 17.8332 52.8356C17.6887 52.7173 17.5409 52.6022 17.3996 52.4791C17.0991 52.2169 16.8018 51.9531 16.5029 51.6878C16.0709 51.3009 15.6291 50.9235 15.2087 50.5239C14.6634 50.0107 14.1345 49.4815 13.6024 48.954C13.2115 48.5671 12.825 48.177 12.4429 47.7838C12.0569 47.3857 11.666 46.9844 11.303 46.5751C10.8514 46.0587 10.4276 45.52 9.98909 44.9908C9.63105 44.5543 9.27136 44.1211 8.92153 43.6798C8.75729 43.4688 8.60455 43.2434 8.45016 43.0244C8.35654 42.8917 8.39926 42.8054 8.56678 42.8022C8.64401 42.81 8.72076 42.8217 8.79673 42.8373C8.85198 42.8457 8.90851 42.8402 8.96097 42.8214C8.98067 42.8134 8.99052 42.7271 8.97081 42.7047C8.93414 42.6554 8.8795 42.6216 8.81808 42.6103C8.66775 42.609 8.51745 42.6165 8.36804 42.6327C8.29618 42.6393 8.22401 42.6241 8.16138 42.5892C8.09875 42.5542 8.04873 42.5013 8.01821 42.4376C7.79156 42.0987 7.54357 41.7726 7.31363 41.4352C7.08369 41.0979 6.8866 40.7734 6.65667 40.4457C6.52856 40.257 6.38075 40.0796 6.24771 39.8925C6.14752 39.7518 6.05063 39.608 5.96358 39.4593C5.74459 39.0799 5.5256 38.6993 5.30662 38.3178C5.12924 37.9981 4.95678 37.6783 4.78597 37.3586C4.61516 37.0388 4.42135 36.6759 4.24561 36.3322C4.06987 35.9885 3.88921 35.632 3.71512 35.2803C3.4819 34.8134 3.24047 34.3499 3.02532 33.8734C2.889 33.5745 2.79536 33.2564 2.68204 32.9462C2.67502 32.9088 2.65868 32.8737 2.63442 32.8439C2.54249 32.7608 2.47308 32.657 2.43239 32.5415C2.3917 32.426 2.38098 32.3025 2.40119 32.182C2.40119 32.1484 2.39135 32.0941 2.36671 32.0797C2.19097 31.9758 2.1729 31.8032 2.13841 31.6337C2.11741 31.5737 2.09046 31.5159 2.05794 31.461C2.0021 31.3267 1.95118 31.1924 1.8937 31.0582C1.83621 30.9239 1.77216 30.8072 1.72946 30.6745C1.59642 30.2588 1.47651 29.8383 1.34841 29.4211C1.29749 29.2612 1.23015 29.1013 1.18417 28.9414C1.14723 28.8134 1.1225 28.6823 1.11027 28.5498C1.10681 28.3663 1.05476 28.1868 0.959158 28.0286C0.885106 27.8604 0.836424 27.6828 0.814626 27.5011C0.752215 27.2692 0.681604 27.0406 0.622477 26.8072C0.594144 26.6899 0.574932 26.5707 0.564997 26.4507C0.538719 26.1581 0.535429 25.8624 0.354765 25.605C0.326803 25.548 0.31168 25.4859 0.310417 25.4227C0.243078 24.924 0.170819 24.4268 0.111692 23.9264C0.073917 23.6066 0.0459793 23.2869 0.0328401 22.9559C0.0197008 22.6026 0.0328401 22.2477 0.0328401 21.8944C0.0213432 20.7513 0.00492721 19.6066 0 18.4636C0 17.8321 8.02738e-07 17.1991 0.0213521 16.566C0.0426781 16.3895 0.0817288 16.2155 0.137956 16.0464C0.180659 15.8673 0.223371 15.6882 0.271001 15.5092C0.33177 15.2822 0.39747 15.0552 0.459881 14.8297C0.489444 14.7242 0.517348 14.6203 0.545269 14.51C0.583045 14.3677 0.61919 14.2255 0.66025 14.0848C0.716091 13.9025 0.77685 13.7218 0.834334 13.5412C0.854043 13.474 0.868842 13.4037 0.893478 13.3381C0.969029 13.1303 1.03964 12.9193 1.12833 12.7163C1.2433 12.4573 1.37634 12.2031 1.49952 11.9457C1.5455 11.8498 1.58328 11.7491 1.62434 11.65C1.63058 11.619 1.63938 11.5884 1.65062 11.5588C1.79023 11.3254 1.93311 11.0936 2.07271 10.8618C2.16305 10.7019 2.23695 10.55 2.34043 10.3997C2.51945 10.1136 2.70503 9.83064 2.88734 9.54607C3.10414 9.20874 3.30451 8.86026 3.5443 8.53572C3.74632 8.25755 3.99105 8.00812 4.2177 7.74753C4.40658 7.52851 4.59381 7.30788 4.7909 7.09525C5.11938 6.74247 5.44786 6.39346 5.77634 6.04814C5.9685 5.8515 6.16231 5.65164 6.37254 5.47259C6.75357 5.14326 7.13461 4.81393 7.53864 4.51337C7.94267 4.21282 8.38612 3.94106 8.80986 3.65329C9.00202 3.5238 9.18268 3.37668 9.38141 3.25838C9.62449 3.11609 9.884 3.00096 10.1304 2.86667C10.3389 2.75156 10.5475 2.63329 10.743 2.499C10.773 2.47011 10.8095 2.44838 10.8495 2.43546C10.8896 2.42253 10.9322 2.4188 10.974 2.42453C11.0158 2.43025 11.0557 2.4453 11.0905 2.46848C11.1254 2.49166 11.1543 2.52234 11.1749 2.55817C11.2111 2.60453 11.285 2.62213 11.3392 2.65411C11.3718 2.58472 11.3993 2.51307 11.4213 2.43983C11.4213 2.41105 11.3868 2.37434 11.3671 2.34077C11.285 2.19688 11.3145 2.16009 11.4673 2.11853C11.5971 2.07254 11.722 2.01419 11.8401 1.94429C11.8582 1.9363 11.8664 1.91228 11.8844 1.90589C12.1658 1.79931 12.4472 1.69273 12.7286 1.58615C12.7763 1.56856 12.8535 1.58616 12.8797 1.55578C13.1327 1.26482 13.5613 1.37512 13.8455 1.14971C13.9062 1.10174 14.0097 1.10491 14.0869 1.07773C14.2511 1.01858 14.4154 0.954686 14.5895 0.892337C14.6026 0.892337 14.6125 0.876331 14.624 0.873134C15.0263 0.769219 15.4255 0.65089 15.8311 0.567758C16.0726 0.518198 16.3238 0.547025 16.516 0.339194C16.6019 0.283202 16.7063 0.260904 16.8084 0.276823C17.1215 0.308295 17.4375 0.256901 17.7232 0.128116C18.0894 -0.0317539 18.4902 0.00667105 18.8827 0.0658229C18.9919 0.0782872 19.1021 0.0782872 19.2112 0.0658229C19.3081 0.0578294 19.4034 0.0258554 19.5003 0.0258554C20.7929 0.0162632 22.0854 0.000260645 23.378 0.00985283C23.7752 0.0327139 24.171 0.0753708 24.5638 0.137717C24.6145 0.149656 24.6675 0.149656 24.7182 0.137717C25.0378 0.0323415 25.3841 0.0323415 25.7036 0.137717C25.9188 0.190474 26.1422 0.211248 26.3606 0.248018C26.4183 0.249781 26.4746 0.265185 26.5248 0.292825C26.5823 0.340786 26.6677 0.452677 26.6513 0.47346C26.5992 0.54731 26.5245 0.60326 26.4378 0.633329C26.3224 0.666566 26.2042 0.690091 26.0847 0.703663C25.9737 0.713609 25.8638 0.732843 25.7562 0.761194C25.6843 0.796718 25.618 0.84198 25.5591 0.895538C25.6281 0.949893 25.6938 1.04422 25.7677 1.05541C26.0962 1.08418 26.4131 1.08419 26.7367 1.10178C26.7959 1.10891 26.8524 1.13029 26.9009 1.16407C26.9477 1.19612 27.0015 1.2172 27.058 1.22558C27.1146 1.23396 27.1723 1.22944 27.2268 1.21239C27.2812 1.19534 27.3309 1.1662 27.3718 1.1273C27.4128 1.08841 27.4438 1.04078 27.4626 0.988197C27.5419 0.844321 27.6496 0.717194 27.7796 0.614126C27.8149 0.593075 27.8551 0.581033 27.8964 0.579077C27.9377 0.577121 27.9789 0.585343 28.0161 0.602963C28.2723 0.777222 28.5713 0.774015 28.8554 0.833167C28.9893 0.874218 29.1203 0.923327 29.2479 0.980234C29.3752 1.0274 29.5052 1.06743 29.6372 1.10014C29.7817 1.13371 29.8967 1.17848 29.9098 1.34954C29.9197 1.48064 29.9887 1.49345 30.0954 1.41831C30.1614 1.37025 30.2423 1.34544 30.3247 1.34806C30.4071 1.35067 30.4861 1.38053 30.5487 1.43268C30.6624 1.4927 30.7818 1.54194 30.9051 1.57975C30.9774 1.60852 31.0513 1.6309 31.1236 1.65968C31.3042 1.73162 31.4865 1.79715 31.6606 1.88028C31.8922 1.99059 32.1172 2.11369 32.3439 2.23359C32.6116 2.37427 32.8776 2.51502 33.1421 2.66051C33.3671 2.78361 33.5888 2.91464 33.8122 3.04254C34.0355 3.17043 34.2376 3.28555 34.4445 3.41505C34.6515 3.54454 34.8732 3.69484 35.0834 3.84033C35.3478 4.02578 35.6139 4.21279 35.8701 4.40783C36.2396 4.6892 36.6174 4.9642 36.9639 5.26955C37.3926 5.64525 37.8065 6.03855 38.2007 6.44781C38.6375 6.90024 39.0498 7.37822 39.467 7.84823C39.6985 8.10722 39.9268 8.36944 40.1436 8.63962C40.2389 8.75632 40.298 8.9002 40.3818 9.02649C40.6019 9.35742 40.8318 9.68035 41.0387 10.0161C41.2736 10.387 41.497 10.7659 41.7154 11.148C41.8029 11.3119 41.8818 11.4799 41.9519 11.6515C42.0965 11.9713 42.2399 12.2873 42.3822 12.5996C42.5251 12.9193 42.6877 13.2263 42.8027 13.5588C42.9406 13.9553 43.0376 14.3581 43.1525 14.769C43.187 14.8841 43.2215 15.0008 43.2543 15.1159C43.3102 15.303 43.3726 15.4868 43.4186 15.6755C43.4859 15.9616 43.5516 16.2478 43.5993 16.5372C43.6469 16.8265 43.6649 17.0936 43.6994 17.3717C43.7438 17.7122 43.7914 18.0527 43.8358 18.3932C43.8883 18.7785 43.9392 19.1638 44 19.5475L43.9721 19.5347ZM17.3931 1.54774L17.375 1.47421C17.1467 1.52856 16.92 1.57972 16.6934 1.63408C16.5751 1.66605 16.4618 1.71244 16.3435 1.74602C16.1136 1.81316 15.882 1.87391 15.6505 1.93945C15.5912 1.96594 15.5296 1.98732 15.4665 2.00339C14.9738 2.05454 14.5468 2.27041 14.1 2.44147C13.9801 2.48783 13.8504 2.50696 13.7288 2.55013C13.6073 2.59329 13.4726 2.65884 13.3462 2.71C13.2526 2.75156 13.1622 2.79473 13.0686 2.8331C12.7664 2.9578 12.4642 3.07931 12.1637 3.20561C12.1111 3.22799 12.07 3.27757 12.0191 3.30155C11.7596 3.42305 11.4936 3.5318 11.239 3.66289C10.9844 3.79399 10.7463 3.93145 10.518 4.07373C10.3931 4.15047 10.2798 4.2448 10.155 4.32314C9.8265 4.53257 9.4816 4.72755 9.1564 4.94817C8.83121 5.16879 8.49944 5.4166 8.17096 5.67079C7.71766 6.03369 7.26107 6.3982 6.83568 6.78988C6.37253 7.22312 5.92415 7.6772 5.5037 8.15041C5.13744 8.56127 4.81881 9.01048 4.47719 9.44373C4.40164 9.53965 4.31295 9.62599 4.24561 9.7267C4.08137 9.96651 3.91714 10.2064 3.7644 10.4574C3.56238 10.7771 3.36364 11.1096 3.17969 11.4437C3.04009 11.6979 2.92841 11.9681 2.79702 12.2286C2.66563 12.4892 2.50959 12.7387 2.39626 13.0072C2.26815 13.3046 2.17289 13.6164 2.06778 13.9249C1.94953 14.2814 1.82471 14.6363 1.72617 14.9976C1.64241 15.303 1.59149 15.6163 1.52416 15.9265C1.51838 16.0082 1.4978 16.0883 1.46339 16.1631C1.33824 16.3815 1.27318 16.6276 1.27451 16.8777C1.2433 17.2454 1.18581 17.6115 1.14146 17.9776C1.11518 18.1934 1.08071 18.4092 1.07414 18.617C1.05771 19.191 1.05278 19.7649 1.04621 20.3405C1.04621 20.6187 1.04621 20.8984 1.04621 21.1782C1.05151 21.2327 1.06364 21.2864 1.08234 21.338C1.16774 21.6706 1.29422 21.9983 1.17432 22.35C1.16605 22.4128 1.17165 22.4766 1.19074 22.5371C1.22031 22.7129 1.25645 22.8888 1.28273 23.0647C1.3205 23.3029 1.34185 23.5442 1.3862 23.7824C1.42233 23.9887 1.49131 24.1885 1.5258 24.3948C1.58328 24.7273 1.61942 25.0631 1.67362 25.3956C1.70483 25.5842 1.75738 25.7681 1.79516 25.9551C1.83293 26.1422 1.86084 26.3564 1.90518 26.5562C1.94953 26.756 2.02015 26.9831 2.06942 27.1957C2.0957 27.306 2.06944 27.4419 2.12364 27.533C2.35686 27.9183 2.2156 28.4155 2.52437 28.78C2.56872 28.8328 2.52437 28.9574 2.52437 29.0485C2.45282 29.0364 2.38012 29.0322 2.30759 29.0358C2.1566 29.0437 2.0092 29.0836 1.87563 29.1525C1.81322 29.1973 1.83621 29.3715 1.84606 29.4866C1.85355 29.5158 1.86845 29.5426 1.88941 29.5647C1.91036 29.5868 1.93669 29.6034 1.96595 29.6129C2.00866 29.6209 2.07107 29.5586 2.11213 29.517C2.15319 29.4754 2.15812 29.4211 2.19425 29.3891C2.29608 29.2948 2.43075 29.2292 2.54079 29.3379C2.6707 29.4636 2.77297 29.6138 2.84137 29.7792C2.97944 30.2672 3.15343 30.7448 3.362 31.2084C3.38105 31.269 3.39479 31.3311 3.40306 31.3939C3.4474 31.517 3.49667 31.6401 3.54759 31.76C3.57551 31.824 3.6215 31.8799 3.64942 31.9438C3.81366 32.3371 3.82188 32.7944 4.15365 33.1189C4.17007 33.1349 4.16843 33.1668 4.17829 33.1908C4.29654 33.4935 4.41533 33.7946 4.53467 34.094C4.53467 34.11 4.55768 34.1244 4.56589 34.1404C4.70878 34.4122 4.85495 34.6808 4.98962 34.9542C5.1243 35.2276 5.24255 35.4945 5.37394 35.7631C5.45442 35.9229 5.53819 36.094 5.62688 36.2555C5.76812 36.5033 5.92416 36.7431 6.06212 36.9925C6.18366 37.2084 6.28384 37.4353 6.40538 37.6511C6.49899 37.811 6.60739 37.9709 6.7125 38.1308C6.85704 38.3546 7.00814 38.5768 7.15103 38.8006C7.36455 39.1347 7.57313 39.4689 7.78171 39.8046C7.86055 39.9293 7.92624 40.0604 8.00836 40.1819C8.1726 40.4345 8.35819 40.6823 8.53228 40.9333C8.61933 41.0596 8.69653 41.1939 8.78522 41.317C8.94946 41.5344 9.12847 41.7422 9.29271 41.9565C9.41261 42.1163 9.50952 42.2874 9.6327 42.4361C9.85279 42.7079 10.0893 42.9652 10.3077 43.2354C10.5262 43.5056 10.7085 43.7646 10.9105 44.0348C11.1125 44.305 11.308 44.5671 11.5248 44.8181C11.9469 45.2977 12.3788 45.7773 12.8124 46.2569C13.1409 46.6231 13.4841 46.986 13.8307 47.3409C14.2249 47.7486 14.6272 48.1498 15.0313 48.5495C15.3597 48.8692 15.6882 49.1889 16.0167 49.5087C16.435 49.903 16.8582 50.2926 17.2863 50.6773C17.4834 50.8532 17.7002 51.0083 17.9104 51.1697C17.931 51.1801 17.9488 51.1952 17.9622 51.2135C17.9757 51.2319 17.9845 51.2531 17.9879 51.2754C17.9912 51.2978 17.9891 51.3206 17.9816 51.3419C17.9741 51.3633 17.9616 51.3827 17.9449 51.3984C17.9255 51.4393 17.9133 51.4831 17.9088 51.5279C17.9613 51.5279 18.0139 51.5151 18.073 51.5119C18.1321 51.5087 18.2504 51.4704 18.298 51.5039C18.6265 51.7533 18.9468 52.0298 19.2835 52.2696C19.5249 52.4391 19.7959 52.5638 20.0537 52.7109C20.2705 52.8324 20.4873 52.9587 20.7107 53.0802C20.7945 53.1282 20.875 53.1729 20.9653 53.2177C21.0556 53.2624 21.1016 53.288 21.1722 53.3184C21.3552 53.3777 21.5314 53.4554 21.6978 53.5502C21.7316 53.5843 21.7726 53.6108 21.8179 53.6279C21.8632 53.645 21.9119 53.6524 21.9604 53.6495C22.0089 53.6466 22.0562 53.6336 22.0991 53.6112C22.1419 53.5888 22.1793 53.5576 22.2086 53.5199C22.2168 53.5119 22.2332 53.5102 22.2464 53.5054C22.5075 53.4015 22.7752 53.3088 23.0298 53.1857C23.3049 53.0575 23.5729 52.9156 23.8329 52.7605C23.9692 52.6805 24.0645 52.5143 24.2074 52.4679C24.4882 52.38 24.6393 52.1481 24.8644 51.9995C25.1403 51.8172 25.3423 51.5199 25.702 51.4608C25.7332 51.4608 25.7562 51.408 25.7841 51.3824C25.9057 51.2705 26.0288 51.1618 26.1471 51.0483C26.2436 50.9698 26.3287 50.8789 26.4 50.7781C26.5018 50.5991 26.5889 50.5782 26.7285 50.7237C26.7564 50.7525 26.8221 50.7477 26.8697 50.7589C26.8582 50.7157 26.8697 50.647 26.8352 50.6326C26.648 50.5303 26.7466 50.4456 26.8435 50.356C26.9896 50.2185 27.1358 50.0842 27.2787 49.9436C27.7353 49.4959 28.1919 49.0499 28.6452 48.599C29.1707 48.0763 29.7045 47.5615 30.212 47.0227C30.685 46.5239 31.1318 45.9996 31.5851 45.4832C31.953 45.0627 32.311 44.6327 32.6756 44.2042C32.8021 44.0588 32.9335 43.9181 33.0682 43.7806C33.1749 43.6719 33.2948 43.5744 33.3966 43.4609C33.4256 43.4197 33.4478 43.3743 33.4624 43.3265C33.4837 43.2613 33.5123 43.1986 33.5477 43.1395C33.8039 42.7942 34.07 42.4553 34.3263 42.1116C34.4609 41.9309 34.5808 41.7422 34.7106 41.56C34.9224 41.2626 35.136 40.9685 35.3462 40.6711C35.4332 40.5464 35.5104 40.4153 35.5958 40.289C35.7338 40.0828 35.8799 39.8814 36.013 39.6736C36.146 39.4657 36.2725 39.2403 36.4072 39.026C36.6437 38.6487 36.89 38.2762 37.1249 37.8974C37.2596 37.6799 37.3811 37.4562 37.5059 37.2355C37.7249 36.8593 37.9374 36.4825 38.1432 36.1052C38.2385 35.9342 38.337 35.7647 38.4208 35.5888C38.6261 35.1524 38.8248 34.7128 39.0268 34.2748C39.0432 34.2396 39.0728 34.2123 39.0892 34.1772C39.219 33.9086 39.3553 33.6432 39.4735 33.3778C39.6131 33.0581 39.7347 32.7384 39.8644 32.4106C39.8759 32.3819 39.9055 32.3595 39.9203 32.3307C39.9564 32.2572 39.9893 32.182 40.0205 32.1069C40.0911 31.9375 40.1601 31.768 40.2307 31.6001C40.252 31.5474 40.2783 31.4946 40.2964 31.4403C40.4146 31.0662 40.5312 30.6921 40.6528 30.3212C40.6718 30.2808 40.6937 30.2417 40.7185 30.2044C40.7651 30.1216 40.8041 30.035 40.8351 29.9455C40.9451 29.549 41.0486 29.1461 41.1636 28.7512C41.1699 28.7264 41.1786 28.7024 41.1898 28.6793C41.4296 28.2684 41.469 27.7952 41.5988 27.3523C41.7023 26.9942 41.699 26.6073 41.8797 26.2636C41.905 26.204 41.9157 26.1394 41.9109 26.075C41.9053 25.7677 41.9698 25.463 42.0997 25.1829C42.128 25.1113 42.144 25.0358 42.1474 24.9591C42.1769 24.5962 42.1983 24.2317 42.2295 23.8688C42.2442 23.7818 42.2667 23.6961 42.2968 23.613C42.3561 23.4397 42.399 23.2616 42.4249 23.0807C42.4545 22.6362 42.4397 22.1869 42.4742 21.7409C42.5169 21.2213 42.6187 20.705 42.6384 20.1838C42.6521 19.731 42.6378 19.2777 42.5957 18.8265C42.5695 18.446 42.4726 18.0687 42.4693 17.6898C42.4693 16.9896 42.236 16.3309 42.0997 15.6579C42.0061 15.1927 41.8238 14.7451 41.6842 14.2878C41.6612 14.2159 41.6579 14.1359 41.6317 14.064C41.5282 13.7618 41.4182 13.4597 41.3032 13.1591C41.3032 13.1591 41.3032 13.1479 41.2917 13.1431C41.1439 12.8405 40.9955 12.5394 40.8466 12.2399C40.7234 11.9905 40.6019 11.7395 40.4721 11.4933C40.3834 11.3238 40.2882 11.1575 40.1847 10.9961C40.0533 10.7946 39.9055 10.6012 39.7725 10.3997C39.5557 10.0704 39.3635 9.72355 39.127 9.4086C38.7985 8.96257 38.4257 8.54049 38.0726 8.10724C37.9789 7.99214 37.8935 7.87061 37.7901 7.7651C37.4616 7.43257 37.1331 7.10436 36.8046 6.78035C36.5911 6.57412 36.3776 6.36625 36.1477 6.1792C35.8734 5.95538 35.5794 5.75395 35.2936 5.53972C34.86 5.21998 34.4264 4.90024 33.9912 4.5805C33.8722 4.49086 33.7483 4.4076 33.62 4.3311C33.4131 4.21279 33.1979 4.1073 32.991 3.99059C32.8267 3.89467 32.6625 3.78438 32.4982 3.69006C32.2519 3.55097 32.0055 3.40869 31.7509 3.29038C31.5243 3.18647 31.2845 3.1145 31.0513 3.02498C31.0275 3.01446 31.0063 2.99924 30.9889 2.98025C30.736 2.72765 30.3565 2.73402 30.0642 2.55497C29.8805 2.46396 29.6887 2.38955 29.491 2.33273C29.4245 2.30654 29.3565 2.28413 29.2873 2.26559C28.7946 2.15368 28.3019 2.0482 27.8207 1.93149C27.2721 1.8004 26.7301 1.63569 26.1783 1.53018C25.8209 1.4853 25.4611 1.46133 25.1009 1.45828C24.9772 1.45763 24.8544 1.43926 24.7362 1.40387C24.3359 1.25687 23.9088 1.19161 23.4815 1.21208C23.2988 1.21728 23.1164 1.19735 22.9395 1.15291C22.4252 1.01668 21.8888 0.977576 21.3595 1.03777C20.7556 1.135 20.1451 1.18843 19.5331 1.19764C19.0474 1.17802 18.5615 1.23196 18.0927 1.35751C17.8644 1.46462 17.6263 1.50617 17.3931 1.54774ZM24.7724 0.537392C24.8512 0.644505 24.9366 0.754815 25.0122 0.857131C25.1764 1.07136 25.2996 1.0538 25.4064 0.806001C25.422 0.781662 25.432 0.754308 25.4357 0.725832C25.4394 0.697356 25.4367 0.668422 25.4278 0.641057C25.4189 0.613693 25.404 0.588498 25.3841 0.567289C25.3643 0.54608 25.3399 0.529334 25.3127 0.518189C25.2323 0.475024 25.1633 0.414289 25.0828 0.374322C25.0213 0.33608 24.9487 0.31817 24.8759 0.323191C24.8315 0.340777 24.8167 0.439871 24.7724 0.537392ZM19.6694 53.3152C19.6694 52.9555 19.3754 52.7877 19.1028 52.9396C19.042 52.9715 18.9649 53.0515 18.9698 53.0994C18.9747 53.1474 19.065 53.2129 19.134 53.2416C19.2636 53.2991 19.399 53.3431 19.538 53.3728C19.5791 53.384 19.6382 53.3312 19.6694 53.3152ZM16.833 0.911462C16.833 0.81554 16.8248 0.726023 16.6688 0.721227C16.4832 0.713233 16.3633 0.79956 16.36 0.957831C16.3567 1.1161 16.4208 1.18964 16.5735 1.19764C16.7262 1.20563 16.8232 1.1113 16.833 0.911462ZM21.6781 54.5894C21.8062 54.5894 21.9245 54.5734 21.9212 54.4167C21.9239 54.3847 21.9198 54.3525 21.9092 54.322C21.8986 54.2916 21.8817 54.2636 21.8595 54.2397C21.8373 54.2159 21.8104 54.1967 21.7803 54.1835C21.7502 54.1702 21.7177 54.1631 21.6846 54.1625C21.6166 54.1521 21.5471 54.1669 21.4896 54.2038C21.4322 54.2408 21.391 54.2974 21.3742 54.3624C21.3627 54.4871 21.4843 54.583 21.6781 54.583V54.5894ZM19.226 0.660495C19.0847 0.724443 18.9747 0.769175 18.8729 0.828327C18.8597 0.83632 18.8729 0.948235 18.8991 0.95463C19.0082 0.999471 19.1257 1.02133 19.2441 1.01864C19.313 1.01065 19.3689 0.905117 19.4296 0.842768L19.226 0.660495ZM17.5836 51.8348C17.5539 51.7919 17.5215 51.7508 17.4867 51.7117C17.4095 51.6398 17.3306 51.5694 17.2502 51.5023C17.2288 51.4847 17.1795 51.4639 17.1697 51.4735C17.1598 51.4831 17.1122 51.5502 17.1221 51.563C17.2054 51.6799 17.2976 51.7906 17.398 51.894C17.4177 51.9116 17.5129 51.8652 17.5852 51.8348H17.5836ZM28.6813 1.38631L28.3643 1.1401C28.3348 1.18647 28.2773 1.23445 28.2806 1.27921C28.2806 1.39591 28.3463 1.49024 28.4859 1.48225C28.5335 1.47905 28.5811 1.43587 28.6813 1.38631ZM18.3637 52.0571C18.3291 52.0061 18.2755 51.9701 18.2141 51.957C18.1528 51.9439 18.0886 51.9545 18.0352 51.9867C18.0155 51.9946 18.0172 52.0491 18.009 52.081C18.1075 52.081 18.2061 52.097 18.3046 52.1018C18.3095 52.1034 18.3341 52.0826 18.3604 52.0571H18.3637ZM8.11677 41.3985C8.06585 41.4848 8.00837 41.5376 8.01494 41.584C8.02151 41.6303 8.09542 41.6607 8.13812 41.6991C8.17425 41.6559 8.23995 41.6127 8.2383 41.5712C8.23666 41.5296 8.17425 41.4736 8.11348 41.3985H8.11677ZM19.0108 52.5894C18.7858 52.4775 18.6659 52.5127 18.6068 52.7045L19.0108 52.5894ZM3.28152 32.2012L3.1567 32.3163C3.1879 32.3483 3.21912 32.4011 3.25361 32.4042C3.27635 32.4018 3.29812 32.394 3.31703 32.3815C3.33593 32.3689 3.35137 32.352 3.362 32.3323C3.37021 32.3051 3.32094 32.2604 3.28152 32.2012Z" fill="white"/>
<path d="M27.2031 0.546753L27.0504 0.706622C27.0159 0.644273 26.9568 0.583498 26.9568 0.521148C26.9568 0.458799 27.0422 0.438051 27.0898 0.396484L27.2031 0.546753Z" fill="white"/>
<path d="M24.7724 0.537115C24.8167 0.439594 24.8315 0.340503 24.8759 0.326115C24.9487 0.321094 25.0213 0.339003 25.0828 0.377245C25.1633 0.417213 25.2323 0.477947 25.3127 0.521112C25.3399 0.532257 25.3643 0.549004 25.3841 0.570213C25.404 0.591422 25.4189 0.616617 25.4278 0.643981C25.4367 0.671345 25.4394 0.70028 25.4357 0.728756C25.432 0.757231 25.422 0.784586 25.4064 0.808925C25.2996 1.05672 25.1813 1.07428 25.0122 0.860055C24.9284 0.754541 24.8512 0.644228 24.7724 0.537115Z" fill="white"/>
<path d="M19.6694 53.3149C19.6382 53.3309 19.5791 53.3837 19.5348 53.3741C19.3957 53.3444 19.2603 53.3005 19.1307 53.243C19.065 53.2143 18.9764 53.1551 18.9665 53.1007C18.9567 53.0464 19.0387 52.9712 19.0995 52.9409C19.3754 52.7874 19.6628 52.9552 19.6694 53.3149Z" fill="white"/>
<path d="M16.833 0.911273C16.8232 1.11111 16.7361 1.20704 16.5801 1.19745C16.424 1.18785 16.3649 1.09673 16.3666 0.957641C16.3682 0.818555 16.4897 0.713044 16.6753 0.721037C16.8248 0.725833 16.8412 0.815351 16.833 0.911273Z" fill="white"/>
<path d="M21.6781 54.5827C21.4843 54.5715 21.3627 54.4804 21.3742 54.3557C21.391 54.2907 21.4322 54.2341 21.4896 54.1972C21.5471 54.1602 21.6166 54.1455 21.6846 54.1559C21.7177 54.1564 21.7502 54.1635 21.7803 54.1768C21.8104 54.1901 21.8373 54.2093 21.8595 54.2331C21.8817 54.2569 21.8986 54.2849 21.9092 54.3154C21.9198 54.3458 21.9239 54.378 21.9212 54.41C21.9245 54.5731 21.8062 54.5955 21.6781 54.5827Z" fill="white"/>
<path d="M19.226 0.660248L19.4296 0.842521C19.3689 0.90487 19.313 1.00241 19.2441 1.01839C19.1257 1.02108 19.0082 0.999224 18.8991 0.954383C18.8778 0.954383 18.8597 0.836073 18.8729 0.82808C18.9747 0.768928 19.0847 0.724196 19.226 0.660248Z" fill="white"/>
<path d="M17.5852 51.8346C17.5047 51.8618 17.421 51.9114 17.3996 51.8938C17.2992 51.7904 17.2069 51.6797 17.1237 51.5628C17.1138 51.55 17.1467 51.4956 17.1713 51.4733C17.1959 51.4509 17.2304 51.4845 17.2518 51.5021C17.3323 51.5692 17.4161 51.6396 17.4883 51.7115C17.5232 51.7506 17.5555 51.7917 17.5852 51.8346Z" fill="white"/>
<path d="M28.6813 1.38607C28.5844 1.43563 28.5368 1.47881 28.4859 1.48201C28.3463 1.48201 28.2871 1.39567 28.2806 1.27897C28.2806 1.2342 28.3348 1.18622 28.3643 1.13986L28.6813 1.38607Z" fill="white"/>
<path d="M18.3604 52.0568C18.3259 52.0824 18.3095 52.1031 18.2947 52.1015C18.1962 52.1015 18.0976 52.0888 17.9991 52.0808C18.0073 52.0488 17.9991 51.9944 18.0254 51.9864C18.0521 51.9695 18.082 51.9579 18.1133 51.9523C18.1446 51.9467 18.1768 51.9471 18.208 51.9537C18.2391 51.9602 18.2686 51.9727 18.2948 51.9904C18.3209 52.0081 18.3432 52.0307 18.3604 52.0568Z" fill="white"/>
<path d="M8.11347 41.3983C8.17424 41.4782 8.23501 41.523 8.23501 41.5709C8.23501 41.6189 8.17096 41.6557 8.13482 41.6989C8.09212 41.6605 8.01821 41.6269 8.01164 41.5837C8.00508 41.5406 8.06256 41.4846 8.11347 41.3983Z" fill="white"/>
<path d="M19.0076 52.5876L18.6035 52.7027C18.6626 52.5045 18.7825 52.4757 19.0076 52.5876Z" fill="white"/>
<path d="M3.28152 32.201C3.32094 32.2617 3.37021 32.3064 3.36199 32.332C3.35137 32.3517 3.33593 32.3687 3.31703 32.3812C3.29812 32.3937 3.27635 32.4016 3.25361 32.404C3.21912 32.404 3.1879 32.3481 3.15669 32.3161L3.28152 32.201Z" fill="white"/>
<path d="M15.3417 39.3376C15.284 39.3604 15.2247 39.3791 15.1643 39.3936C15.0148 39.4224 14.8621 39.4447 14.7586 39.2913C14.7452 39.2691 14.7259 39.2509 14.7028 39.2385C14.4334 39.1298 14.1641 39.0243 13.8947 38.9187C13.8717 38.9092 13.8373 38.9188 13.8175 38.9076C13.5958 38.7749 13.3741 38.6406 13.1606 38.5047C13.1113 38.4743 13.0719 38.4295 13.0226 38.3992C12.7549 38.2393 12.4856 38.0794 12.2162 37.9196C12.0947 37.8476 11.9715 37.7789 11.8516 37.7037C11.5231 37.4991 11.1946 37.2992 10.8793 37.085C10.7551 36.9929 10.6397 36.8902 10.5344 36.7781C10.1714 36.4232 9.79202 36.081 9.45204 35.7053C9.15312 35.376 8.89198 35.0131 8.63084 34.6566C8.54919 34.5277 8.47991 34.3918 8.4239 34.2505C8.29086 33.9691 8.15125 33.691 8.02971 33.4048C7.88683 33.0707 7.76037 32.7318 7.62569 32.3961C7.61419 32.3657 7.58955 32.3401 7.58134 32.3113L7.25286 30.8278C7.19209 30.5608 7.12147 30.2954 7.06891 30.0284C7.02358 29.8176 6.99338 29.6039 6.97857 29.3889C6.88771 28.1525 6.87072 26.9119 6.92767 25.6735C6.97201 25.0005 7.02786 24.3258 7.09191 23.6544C7.13461 23.2036 7.18716 22.7527 7.26599 22.3083C7.31133 22.0907 7.38761 21.8803 7.49265 21.6832C7.50985 21.6578 7.53226 21.6361 7.55849 21.6195C7.58471 21.6029 7.61419 21.5918 7.64504 21.5868C7.67589 21.5819 7.70746 21.5833 7.73776 21.5908C7.76807 21.5983 7.79645 21.6117 7.82113 21.6304C8.0866 21.7717 8.38127 21.8531 8.68339 21.8687C8.77845 21.8886 8.87099 21.9186 8.95932 21.9582L9.42247 22.1085C9.59985 22.1644 9.77559 22.2283 9.95625 22.2763C10.1057 22.3163 10.2617 22.337 10.4161 22.3658C10.4287 22.3648 10.4413 22.3648 10.4539 22.3658L11.2899 22.7639C11.3539 22.7943 11.4213 22.8167 11.4837 22.8471C11.6052 22.9062 11.7251 22.9686 11.8434 23.0309L12.5003 23.3826C12.5434 23.396 12.5852 23.4132 12.6252 23.4338C13.1557 23.8319 13.7058 24.2092 14.2101 24.6392C14.7143 25.0693 15.1955 25.5569 15.6685 26.0317C15.9278 26.2926 16.1718 26.5674 16.3994 26.855C16.6277 27.1395 16.833 27.4417 17.0416 27.7422C17.2699 28.0732 17.4965 28.4073 17.71 28.7478C17.8496 28.9748 17.9712 29.2146 18.0894 29.4544C18.2077 29.6942 18.3243 29.9916 18.4573 30.2538C18.5362 30.4136 18.5936 30.532 18.4064 30.6487C18.3719 30.6711 18.3424 30.7702 18.3621 30.7942C18.4037 30.8426 18.4621 30.8744 18.5263 30.8837C18.8334 30.8964 18.8252 30.8933 18.8827 31.189C18.9181 31.3165 18.9637 31.441 19.019 31.5615C19.0573 31.6617 19.0935 31.764 19.1274 31.8685C19.218 32.0742 19.2862 32.2885 19.3311 32.508C19.3738 32.9316 19.5758 33.3074 19.6596 33.7182C19.7286 34.0955 19.7269 34.4855 19.8238 34.8564C20.0587 35.846 19.9355 36.8516 20.0061 37.8476C20.0488 38.4439 20.0653 39.0434 20.1129 39.6397C20.1271 39.7698 20.113 39.9013 20.0717 40.0258C20.0304 40.1503 19.9628 40.2649 19.8731 40.3623C19.8179 40.4147 19.7448 40.4454 19.6678 40.4487C19.1882 40.4583 18.7103 40.4583 18.2307 40.4567C18.1593 40.452 18.089 40.4368 18.0221 40.4119C17.8365 40.356 17.6526 40.2936 17.467 40.2377C17.2255 40.1657 16.9825 40.097 16.7394 40.0267C16.7394 40.0267 16.7279 40.0186 16.7213 40.0186C16.3304 40.0026 16.0085 39.7788 15.6439 39.6781C15.4337 39.6142 15.432 39.619 15.3417 39.3376ZM18.4623 35.0419L18.5395 35.0259C18.39 34.2905 18.2422 33.5535 18.0894 32.8181C18.0622 32.733 18.0292 32.6497 17.9909 32.5687C17.9547 32.4728 17.9268 32.3737 17.8924 32.2778C17.7872 31.958 17.6788 31.6527 17.5639 31.3409C17.5487 31.3127 17.5317 31.2854 17.513 31.2594C17.375 30.9876 17.237 30.7142 17.1024 30.4392C16.9677 30.1643 16.8642 29.9213 16.7295 29.6687C16.6048 29.4344 16.4677 29.2066 16.3189 28.9861C16.0841 28.6375 15.8344 28.297 15.5897 27.9533C15.5649 27.9157 15.538 27.8794 15.5092 27.8446C15.2612 27.544 15.0165 27.2371 14.7586 26.9445C14.5698 26.7335 14.3595 26.5416 14.1559 26.3434L13.2361 25.4577C13.2155 25.4425 13.1935 25.4291 13.1704 25.4177C12.9684 25.2802 12.7648 25.146 12.566 25.0069C12.2819 24.807 12.0109 24.5864 11.7136 24.4042C11.4662 24.2681 11.2118 24.1444 10.9516 24.0333C10.922 24.0189 10.8957 23.9997 10.8661 23.9853L10.0745 23.6001C10.0426 23.5909 10.0103 23.5834 9.9776 23.5777C9.83964 23.5297 9.70003 23.4817 9.56207 23.4289C9.4898 23.4018 9.41919 23.3666 9.34693 23.3378C9.19254 23.2755 9.03157 23.2276 8.88211 23.154C8.67845 23.0533 8.51094 23.1093 8.46496 23.3267C8.4341 23.4899 8.4138 23.6549 8.40419 23.8207C8.34999 24.5385 8.281 25.2595 8.25637 25.9757C8.23666 26.5161 8.27116 27.0596 8.2843 27.6016C8.2843 27.7486 8.28429 27.8958 8.304 28.0396C8.33849 28.3242 8.38941 28.604 8.42554 28.8869C8.48302 29.3425 8.53065 29.7997 8.58978 30.2538C8.63905 30.6119 8.68339 30.9732 8.76551 31.3233C8.84763 31.6734 8.96424 31.9756 9.07428 32.2985C9.1252 32.4488 9.19417 32.5927 9.25165 32.7398C9.30914 32.8869 9.36169 33.0595 9.4356 33.2194C9.55358 33.4093 9.65892 33.6063 9.75095 33.8093C9.88563 34.2234 10.1993 34.5207 10.4276 34.8724C10.5321 35.0329 10.6575 35.1796 10.8004 35.3089C11.0649 35.5439 11.3424 35.7645 11.6217 35.9836C11.9961 36.2809 12.3673 36.5814 12.7582 36.858C13.0768 37.085 13.4151 37.2832 13.7568 37.4847C14.0475 37.6589 14.3448 37.8205 14.6387 37.9883C14.6716 38.0075 14.7028 38.033 14.7357 38.0506C14.9663 38.1885 15.2042 38.3145 15.4484 38.428C15.7884 38.5671 16.1448 38.6725 16.4947 38.7924C16.5308 38.8052 16.562 38.8308 16.5981 38.8468C16.7164 38.8931 16.8347 38.9475 16.9578 38.9843C17.1377 39.0423 17.3215 39.0877 17.508 39.1201C17.8431 39.1692 18.1798 39.2065 18.5181 39.2321C18.5482 39.2364 18.5788 39.2344 18.608 39.2262C18.6372 39.218 18.6642 39.2039 18.6873 39.1846C18.7104 39.1654 18.7289 39.1415 18.7416 39.1147C18.7544 39.0878 18.7611 39.0586 18.7612 39.029C18.7612 38.7844 18.7431 38.5398 18.73 38.2936C18.73 38.2185 18.7053 38.1338 18.7037 38.0666C18.6906 37.587 18.7037 37.0946 18.6676 36.6102C18.6479 36.2425 18.5937 35.8765 18.546 35.5104C18.5395 35.3521 18.4984 35.197 18.4688 35.0419H18.4623ZM19.1192 34.0827L19.3541 33.8525C19.2785 33.7853 19.2129 33.6814 19.1258 33.6622C19.0026 33.6335 18.9336 33.747 18.9501 33.8557C18.9714 33.926 19.0503 33.9836 19.1307 34.0859L19.1192 34.0827ZM17.8053 29.6063L17.6953 29.4657C17.6674 29.5072 17.6164 29.5488 17.6164 29.5903C17.6164 29.6319 17.6657 29.6783 17.6936 29.723L17.8053 29.6063Z" fill="white"/>
<path d="M24.5178 32.1466C24.5736 31.8893 24.5539 31.6095 24.7707 31.3969C24.82 31.3473 24.8019 31.237 24.8282 31.1586C24.8709 31.0339 24.9235 30.9141 24.9711 30.791C25.0048 30.6691 25.0545 30.5519 25.1189 30.4424C25.2497 30.2607 25.3362 30.0524 25.3719 29.8333C25.4055 29.7423 25.4727 29.6667 25.5605 29.6212C25.6482 29.5757 25.7501 29.5635 25.8465 29.5871C26.129 29.6366 26.198 29.5871 26.2013 29.3009C26.2013 29.1283 26.3852 28.9924 26.6201 28.9812C26.7246 28.9786 26.8288 28.9695 26.9322 28.954C27.0006 28.9409 27.0627 28.9063 27.109 28.8554C27.1553 28.8046 27.1832 28.7404 27.1883 28.6727C27.2052 28.6167 27.201 28.5567 27.1767 28.5034C27.1523 28.4502 27.1093 28.407 27.0553 28.3817C27.0225 28.3641 26.9814 28.3289 26.9781 28.3002C26.9808 28.2497 26.972 28.1992 26.9523 28.1524C26.9326 28.1056 26.9025 28.0636 26.8643 28.0294C26.826 27.9952 26.7805 27.9696 26.7309 27.9545C26.6813 27.9394 26.6288 27.9351 26.5774 27.942C26.5874 27.8977 26.6017 27.8543 26.6201 27.8125C27.0227 27.1427 27.502 26.5195 28.049 25.9549C28.6751 25.2864 29.3665 24.6787 30.1135 24.1404C30.3631 23.9597 30.6242 23.795 30.8788 23.6191C30.9239 23.5833 30.9651 23.5431 31.002 23.4992C31.0381 23.4625 31.0644 23.4082 31.1071 23.3874C31.3042 23.2946 31.5111 23.2195 31.705 23.1188C31.948 22.9925 32.1829 22.847 32.4211 22.7095C32.4211 22.7095 32.4309 22.6967 32.4359 22.6967C32.8317 22.6727 33.1027 22.3018 33.5264 22.3354C33.6381 22.345 33.758 22.2539 33.873 22.2076C33.9534 22.174 34.0372 22.126 34.1144 22.1004C34.323 22.038 34.5365 21.9853 34.7467 21.9261C34.8075 21.9086 34.8666 21.8558 34.9257 21.8558C35.2879 21.8467 35.6432 21.7581 35.9654 21.5968C35.9905 21.5831 36.0187 21.5757 36.0474 21.5753C36.0762 21.5749 36.1046 21.5815 36.1301 21.5945C36.1555 21.6076 36.1773 21.6266 36.1933 21.6499C36.2092 21.6732 36.219 21.7001 36.2216 21.7279C36.3168 22.1084 36.4187 22.4905 36.4844 22.8774C36.5305 23.3014 36.6067 23.7218 36.7126 24.1355C36.803 24.4185 36.7603 24.7415 36.7652 25.0468C36.7833 25.8765 36.8079 26.7079 36.803 27.5376C36.803 28.1499 36.7866 28.7654 36.7209 29.3729C36.6552 29.9804 36.5238 30.5815 36.4105 31.1826C36.353 31.4815 36.2741 31.7757 36.1986 32.0715C36.1698 32.1546 36.1329 32.2349 36.0886 32.3113C36.0584 32.3529 36.0315 32.3967 36.0081 32.4423C35.8931 32.7781 35.7847 33.1154 35.6697 33.4511C35.64 33.5205 35.6066 33.5882 35.5695 33.6542C35.5137 33.7661 35.4579 33.878 35.4053 33.9915C35.3945 34.0347 35.3803 34.0769 35.3626 34.1179C35.0472 34.5735 34.7155 35.0195 34.4149 35.4847C34.0864 35.9867 33.6249 36.348 33.1815 36.7333C32.9384 36.9427 32.6707 37.1266 32.4128 37.3232C32.1057 37.5566 31.8052 37.8028 31.4865 38.0187C31.2681 38.1705 31.0217 38.2857 30.7951 38.4279C30.6079 38.543 30.4305 38.6709 30.2498 38.7956C30.2258 38.8172 30.2006 38.8374 30.1743 38.8563C29.9427 38.965 29.7078 39.069 29.4762 39.1761C29.2151 39.3008 28.9572 39.4335 28.6977 39.5597C28.6107 39.6013 28.5203 39.6381 28.43 39.6749C28.4004 39.6877 28.3594 39.6861 28.338 39.7053C28.0325 39.9722 27.5908 39.9147 27.2623 40.1321C27.172 40.1686 27.0769 40.1928 26.9798 40.2041C26.7745 40.2664 26.5741 40.3383 26.3688 40.3991C26.2695 40.4452 26.1601 40.4672 26.0502 40.4631C25.5459 40.3496 25.0417 40.463 24.5392 40.4454C24.4143 40.4454 24.2895 40.4359 24.1663 40.4311C23.9265 40.4311 23.7754 40.2712 23.6145 40.1273C23.585 40.1022 23.5658 40.0676 23.5603 40.0298C23.5718 39.6685 23.5866 39.3056 23.6046 38.9443C23.6046 38.8964 23.6474 38.8483 23.649 38.8004C23.672 38.3495 23.6884 37.8987 23.7065 37.4479C23.7327 36.8084 23.7524 36.1689 23.7902 35.5294C23.8001 35.3696 23.8904 35.2097 23.9118 35.0498C23.9709 34.6198 23.9988 34.185 24.0645 33.7565C24.1065 33.5158 24.1692 33.2788 24.2517 33.0483C24.2944 32.922 24.416 32.9092 24.5474 32.9268C24.7022 32.9468 24.859 32.9468 25.0138 32.9268C25.1058 32.8997 25.1897 32.8514 25.2585 32.7861C25.3659 32.7087 25.4655 32.6214 25.5558 32.5255C25.58 32.4982 25.5982 32.4664 25.6095 32.4321C25.6208 32.3978 25.6249 32.3615 25.6215 32.3256C25.589 32.2386 25.5374 32.1596 25.4704 32.0939C25.4704 32.0843 25.3768 32.1195 25.3472 32.153C25.3177 32.1866 25.3193 32.2569 25.2848 32.2889C25.2302 32.3307 25.1706 32.3662 25.1074 32.3944C25.0697 32.3359 25.0383 32.2737 25.0138 32.2089C25.0033 32.1445 24.9995 32.0792 25.0023 32.0139C24.9334 32.0379 24.866 32.0667 24.797 32.0843C24.7034 32.1051 24.6098 32.1179 24.5161 32.1338L24.5178 32.1466ZM27.8502 28.0204L27.9028 28.0555C27.8812 28.1106 27.8554 28.1641 27.8256 28.2154C27.7944 28.2634 27.7419 28.297 27.7139 28.3465C27.5497 28.6183 27.3887 28.8927 27.231 29.1699C27.098 29.4017 26.9716 29.6367 26.8418 29.8701C26.7285 30.0763 26.6152 30.2825 26.5035 30.4888C26.4573 30.5702 26.4156 30.654 26.3786 30.7397C26.2797 31.0552 26.1579 31.3635 26.014 31.6622C25.9054 31.8344 25.8364 32.0275 25.812 32.2281C25.8141 32.2989 25.794 32.3686 25.7545 32.428C25.5755 32.6118 25.5903 32.8484 25.5426 33.0675C25.477 33.3984 25.4261 33.4336 25.0812 33.3872C25.0483 33.3872 25.0056 33.3664 24.9842 33.3872C24.9264 33.4305 24.8715 33.4775 24.82 33.5279C24.8709 33.5678 24.9169 33.6318 24.9727 33.643C25.2667 33.6974 25.3177 33.7358 25.2717 34.0315C25.2175 34.372 25.1074 34.7061 25.0581 35.0466C24.9936 35.4556 24.9503 35.8676 24.9284 36.2809C24.9087 36.7125 24.9695 37.1505 24.8299 37.571C24.7929 37.6803 24.7305 37.7799 24.6475 37.862C24.5523 37.9531 24.4685 38.0586 24.5753 38.1514C24.7074 38.2929 24.7867 38.4737 24.8003 38.6645C24.8069 38.7014 24.8047 38.7392 24.7942 38.7752C24.7837 38.8111 24.765 38.8444 24.7395 38.8723C24.7206 38.8873 24.6984 38.8981 24.6746 38.9036C24.6509 38.9092 24.6261 38.9096 24.6022 38.9047C24.5783 38.8998 24.5558 38.8897 24.5364 38.8753C24.5169 38.8609 24.501 38.8424 24.4899 38.8212C24.4308 38.7237 24.347 38.6725 24.255 38.762C24.2353 38.7812 24.2895 38.9043 24.3388 38.9459C24.4554 39.0434 24.434 39.1057 24.324 39.1857C24.2728 39.2337 24.2276 39.2873 24.1893 39.3455C24.2635 39.3737 24.3415 39.391 24.4209 39.3967C24.4866 39.3967 24.5474 39.3312 24.6147 39.312C24.7269 39.266 24.8463 39.2389 24.9678 39.232C25.1583 39.2432 25.1912 39.3392 25.0812 39.4911C25.046 39.5306 25.0209 39.5776 25.0079 39.6284C24.9948 39.6791 24.9942 39.7321 25.006 39.7831C25.0178 39.8341 25.0418 39.8817 25.076 39.922C25.1101 39.9624 25.1535 39.9943 25.2027 40.0154C25.2569 40.0458 25.2963 40.1002 25.3489 40.1369C25.4014 40.1737 25.4802 40.2408 25.5131 40.2248C25.5456 40.2088 25.5742 40.1863 25.5971 40.1587C25.62 40.1312 25.6367 40.0992 25.6461 40.065C25.6491 40.0303 25.6431 39.9955 25.6287 39.9637C25.6144 39.9319 25.5922 39.9041 25.564 39.8827C25.4923 39.8433 25.4325 39.7862 25.3907 39.7172C25.3489 39.6481 25.3265 39.5696 25.3259 39.4894C25.3255 39.4628 25.3315 39.4366 25.3435 39.4127C25.3555 39.3888 25.3731 39.368 25.3948 39.3519C25.541 39.2482 25.696 39.1568 25.858 39.0786C25.9812 39.0236 26.115 38.9947 26.2505 38.9939C26.4476 38.9939 26.4723 39.0674 26.3721 39.2337C26.3458 39.2769 26.3179 39.3664 26.3359 39.3808C26.3888 39.4244 26.4556 39.4487 26.5248 39.4494C26.6694 39.4319 26.6891 39.3247 26.6694 39.2032C26.6382 38.9187 26.7367 38.8004 27.0241 38.7413C27.1428 38.7084 27.2592 38.6678 27.3723 38.6197C27.5366 38.5638 27.7008 38.511 27.865 38.4599C27.9473 38.4414 28.028 38.4168 28.1065 38.3863C28.4251 38.2345 28.7388 38.0746 29.0541 37.9195C29.0837 37.9035 29.1149 37.8923 29.1428 37.8764C29.4105 37.7261 29.6815 37.579 29.9459 37.4239C30.1693 37.2944 30.3894 37.1617 30.6029 37.021C30.9314 36.8084 31.2517 36.5974 31.5637 36.3704C31.8758 36.1434 32.1418 35.9356 32.4128 35.6973C32.7045 35.4489 32.9788 35.1819 33.234 34.898C33.4837 34.6118 33.7908 34.356 33.9025 33.9707C33.927 33.9193 33.9579 33.8709 33.9945 33.8268C34.1447 33.5986 34.2813 33.3622 34.4035 33.1187C34.5463 32.7989 34.6482 32.4679 34.7697 32.1418C34.7812 32.1114 34.8058 32.0859 34.8157 32.0571C34.8633 31.9116 34.9159 31.7693 34.952 31.6222C34.9682 31.4586 35.0052 31.2975 35.0621 31.1426C35.1829 30.9013 35.2436 30.6357 35.2394 30.3672C35.2464 30.2216 35.2618 30.0764 35.2854 29.9324C35.3601 29.6297 35.415 29.3227 35.4496 29.0132C35.4825 28.1915 35.4973 27.3665 35.4858 26.5432C35.4759 25.8493 35.4414 25.1523 35.3725 24.4649C35.3363 24.1131 35.1983 23.7726 35.2345 23.4081C35.2353 23.357 35.2246 23.3062 35.2033 23.2594C35.1474 23.0996 35.0522 23.0468 34.9044 23.1316C34.5907 23.3106 34.2162 23.333 33.9091 23.5536C33.6939 23.7135 33.3884 23.7359 33.1322 23.8382C32.876 23.9405 32.6231 24.062 32.3751 24.1835C32.2041 24.262 32.0394 24.3528 31.8823 24.4553C31.5637 24.6737 31.2517 24.9008 30.9462 25.1363C30.5372 25.4561 30.125 25.7566 29.7341 26.0956C29.3961 26.4054 29.0759 26.7331 28.7749 27.0772C28.5614 27.3154 28.3775 27.5776 28.1853 27.8334C28.1015 27.9437 27.9734 27.9596 27.8946 27.8589C27.8116 27.7887 27.7103 27.7424 27.6019 27.7249C27.4934 27.7074 27.3821 27.7195 27.2803 27.7598C27.2442 27.7838 27.1966 27.8317 27.2015 27.8621C27.2056 27.9935 27.2363 28.1228 27.2918 28.2426C27.3181 28.2858 27.4807 28.2665 27.5776 28.2522C27.6252 28.2522 27.6663 28.1883 27.7074 28.1531C27.7484 28.1179 27.8075 28.0604 27.8502 28.0204ZM25.1945 31.707C25.1945 31.8669 25.3029 31.9292 25.4573 31.8541C25.5283 31.8112 25.6018 31.7722 25.6773 31.7374C25.789 31.699 25.858 31.6254 25.812 31.5263C25.7938 31.483 25.7663 31.4441 25.7315 31.4119C25.6967 31.3796 25.6553 31.3549 25.61 31.3393C25.3177 31.2945 25.1928 31.416 25.1945 31.707ZM24.4127 39.9147C24.3601 39.9818 24.2977 40.0426 24.3076 40.0554C24.3401 40.1087 24.3906 40.1494 24.4505 40.1705C24.4899 40.1705 24.5425 40.1097 24.5884 40.0761L24.4127 39.9147Z" fill="white"/>
<path d="M24.5145 32.1434C24.5145 32.3033 24.5605 32.4631 24.4373 32.6118C24.2599 32.4248 24.2879 32.2921 24.5178 32.1482L24.5145 32.1434Z" fill="white"/>
<path d="M19.1307 34.0859C19.0503 33.9835 18.9665 33.926 18.9665 33.8589C18.9501 33.7501 19.019 33.6366 19.1422 33.6654C19.2292 33.6846 19.295 33.7885 19.3705 33.8557L19.1307 34.0859Z" fill="white"/>
<path d="M17.8233 29.6063L17.7117 29.723C17.6838 29.6782 17.6361 29.635 17.6345 29.5903C17.6328 29.5455 17.6854 29.5072 17.7133 29.4656L17.8233 29.6063Z" fill="white"/>
<path d="M25.1945 31.707C25.1945 31.416 25.3177 31.2945 25.61 31.3392C25.6553 31.3548 25.6967 31.3796 25.7315 31.4118C25.7663 31.4441 25.7938 31.483 25.812 31.5263C25.858 31.6254 25.789 31.699 25.6773 31.7373C25.6018 31.7722 25.5283 31.8111 25.4573 31.854C25.3029 31.9292 25.1961 31.8684 25.1945 31.707Z" fill="white"/>
<path d="M24.4111 39.9147L24.5868 40.0745C24.5408 40.1081 24.4883 40.1736 24.4488 40.1688C24.3889 40.1478 24.3384 40.1071 24.306 40.0538C24.2978 40.0426 24.3601 39.9818 24.4111 39.9147Z" fill="white"/>
</g>
<defs>
<clipPath id="clip0_0_198">
<rect width="44" height="55" fill="white"/>
</clipPath>
</defs>
</svg>
