<svg width="70" height="65" viewBox="0 0 70 65" fill="none" xmlns="http://www.w3.org/2000/svg">
<path fill-rule="evenodd" clip-rule="evenodd" d="M14.494 1.97061C10.7007 5.26117 7.06051 8.99955 7.22752 9.43287C7.32492 9.68552 7.24623 9.77558 7.00796 9.6847C6.6068 9.53169 4.57129 11.96 4.79663 12.3227C4.86899 12.4393 4.74408 12.6046 4.51929 12.6903C4.13711 12.8362 2.45489 15.9423 2.45489 16.5018C2.45489 16.6419 2.62658 16.6909 2.83651 16.6107C3.10505 16.5081 3.17659 16.6228 3.07809 16.9978C2.97188 17.4013 2.85054 17.4585 2.57815 17.2335C2.09913 16.8379 1.81491 17.3909 1.09816 20.1134C0.654903 21.7969 0.604002 22.3433 0.862086 22.6526C1.12265 22.9652 1.09706 23.0988 0.738547 23.2986C0.247691 23.5718 -0.194189 25.7096 0.0886585 26.4427C0.224579 26.795 0.34234 26.8199 0.654078 26.5623C0.97572 26.2968 1.0401 26.3425 1.00461 26.812C0.978471 27.1549 0.819714 27.3329 0.61033 27.2529C0.135158 27.0715 -0.186484 28.4136 0.232283 28.8305C0.723964 29.3199 22.7871 29.4423 22.9266 28.9564C22.9822 28.7631 23.2491 27.8045 23.5201 26.8259C23.7909 25.8473 24.2256 24.6147 24.4859 24.0867C24.9429 23.1603 27.1974 20.8577 28.5731 19.9119C29.425 19.3262 29.6641 19.8233 24.1717 10.766C18.3821 1.21921 17.5856 0 17.1384 0C16.9335 0 15.7435 0.886624 14.494 1.97061ZM50.8297 2.102C50.1523 3.27933 48.5689 5.9674 47.3112 8.07515C46.0532 10.1829 44.0992 13.5088 42.9686 15.466C41.838 17.4232 40.8599 19.1137 40.7947 19.2224C40.7295 19.3314 40.9603 19.6393 41.307 19.9067C42.9188 21.1495 45.0391 23.5274 45.6028 24.7247C45.9448 25.4512 46.3842 26.7446 46.5793 27.5989L46.934 29.1527L58.3139 29.2241C64.5728 29.2635 69.8014 29.1885 69.9332 29.0574C70.0694 28.9219 69.9915 28.0038 69.7532 26.9327C69.5224 25.8955 69.0742 23.8148 68.7569 22.3093C68.44 20.8038 68.0641 19.3582 67.9221 19.0968C67.7802 18.8354 67.6638 18.4341 67.6638 18.2052C67.6638 17.162 65.5166 12.5545 63.9953 10.3335C61.891 7.26106 59.4706 4.79335 56.088 2.27199C52.3471 -0.51681 52.3367 -0.517083 50.8297 2.102ZM53.6818 3.89167C53.4846 4.08794 53.3564 4.10409 53.3564 3.93273C53.3564 3.5673 53.6819 3.24347 53.8654 3.42633C53.9435 3.50407 53.861 3.71347 53.6818 3.89167ZM16.4872 3.95299C16.4872 4.01951 16.3634 4.14981 16.212 4.24287C16.0607 4.33594 15.9369 4.28147 15.9369 4.12216C15.9369 3.96284 16.0607 3.83227 16.212 3.83227C16.3634 3.83227 16.4872 3.88647 16.4872 3.95299ZM15.3866 4.62419C15.3866 5.0701 14.6069 5.17494 14.2726 4.77419C14.0004 4.4479 14.0681 4.37974 14.6652 4.37974C15.0619 4.37974 15.3866 4.48978 15.3866 4.62419ZM13.5156 6.35063C13.339 6.52636 13.1032 6.57919 12.9918 6.46806C12.8801 6.35692 12.9673 6.15627 13.1855 6.02214C13.4037 5.88802 13.6395 5.83518 13.7093 5.90471C13.7795 5.97424 13.6923 6.17489 13.5156 6.35063ZM13.8045 7.29829C13.6155 7.37439 13.306 7.37439 13.1167 7.29829C12.9277 7.22247 13.0823 7.16033 13.4606 7.16033C13.8389 7.16033 13.9938 7.22247 13.8045 7.29829ZM58.1081 8.73895C58.2052 9.10877 58.1328 9.22264 57.8651 9.12027C57.6552 9.04006 57.4835 8.80301 57.4835 8.59333C57.4835 8.02451 57.9488 8.13291 58.1081 8.73895ZM8.50804 9.44382C8.50804 9.66965 8.32231 9.85442 8.09532 9.85442C7.66555 9.85442 7.54944 9.53059 7.86613 9.2158C8.18254 8.90073 8.50804 9.01625 8.50804 9.44382ZM62.0864 9.19855C61.995 9.28943 61.7576 9.29929 61.5592 9.22018C61.3396 9.13286 61.4048 9.06798 61.7254 9.05484C62.0154 9.04307 62.1777 9.10767 62.0864 9.19855ZM13.2278 10.1955C12.9128 10.5089 12.2797 10.2053 12.502 9.84758C12.5848 9.71399 12.8429 9.67704 13.0751 9.76573C13.3511 9.87112 13.4039 10.0203 13.2278 10.1955ZM7.68261 10.5771C7.68261 10.6734 7.46579 10.9157 7.20111 11.1158C6.88139 11.3572 6.84067 11.4823 7.07977 11.4881C7.27787 11.493 7.37059 11.6085 7.28585 11.7448C7.10453 12.0366 6.03175 11.8105 6.03175 11.4804C6.03175 11.2288 7.13342 10.4019 7.46882 10.4019C7.58631 10.4019 7.68261 10.4807 7.68261 10.5771ZM16.4872 10.6756C16.4872 10.8262 16.3634 10.9494 16.212 10.9494C16.0607 10.9494 15.9369 10.8262 15.9369 10.6756C15.9369 10.5251 16.0607 10.4019 16.212 10.4019C16.3634 10.4019 16.4872 10.5251 16.4872 10.6756ZM8.50804 11.4968C8.50804 11.6474 8.37679 11.7706 8.21666 11.7706C8.05653 11.7706 8.00177 11.6474 8.09532 11.4968C8.18887 11.3463 8.31984 11.2231 8.3867 11.2231C8.45356 11.2231 8.50804 11.3463 8.50804 11.4968ZM13.7358 11.7867C13.7358 11.946 13.6224 12.0071 13.484 11.9219C13.3456 11.8368 13.1769 11.9219 13.109 12.1111C13.0413 12.3002 12.8944 12.3706 12.7829 12.2679C12.6712 12.165 12.6616 11.9493 12.7615 11.7889C12.9962 11.4109 13.7358 11.4095 13.7358 11.7867ZM6.85718 12.4869C6.85718 12.5444 6.54021 12.5918 6.15309 12.5918C5.76596 12.5918 5.51833 12.4801 5.60308 12.3438C5.74395 12.1168 6.85718 12.2438 6.85718 12.4869ZM7.45369 14.8451C7.24953 15.0482 7.21376 14.9412 7.33345 14.486C7.43085 14.1159 7.55549 13.9916 7.62428 14.1967C7.69031 14.3943 7.61382 14.6858 7.45369 14.8451ZM6.58204 16.9715C6.58204 17.1221 6.52756 17.2452 6.4607 17.2452C6.39384 17.2452 6.26287 17.1221 6.16932 16.9715C6.07577 16.8209 6.13053 16.6978 6.29066 16.6978C6.45079 16.6978 6.58204 16.8209 6.58204 16.9715ZM5.5984 17.5521C5.42011 17.8392 4.93118 17.6088 4.93118 17.2376C4.93118 17.1007 5.11607 17.0594 5.34224 17.1456C5.56841 17.2321 5.68369 17.4149 5.5984 17.5521ZM4.10575 18.3402C4.10575 18.4907 3.9745 18.6139 3.81437 18.6139C3.65424 18.6139 3.59948 18.4907 3.69303 18.3402C3.78658 18.1896 3.91755 18.0664 3.98441 18.0664C4.05127 18.0664 4.10575 18.1896 4.10575 18.3402ZM5.20632 21.0775C5.20632 21.2281 5.15184 21.3512 5.08498 21.3512C5.01812 21.3512 4.88715 21.2281 4.7936 21.0775C4.70006 20.927 4.75481 20.8038 4.91494 20.8038C5.07508 20.8038 5.20632 20.927 5.20632 21.0775ZM33.5609 22.213C31.0046 22.6296 28.9922 24.1255 27.724 26.5522C26.7844 28.3498 26.8039 31.6258 27.7656 33.4987C30.7842 39.3794 39.1755 39.197 42.0983 33.1872C42.9936 31.3461 42.9744 28.2836 42.0565 26.5585C41.0354 24.6391 39.1865 23.0457 37.4077 22.5521C35.2233 21.9461 35.2082 21.9447 33.5609 22.213ZM46.4778 22.2932C46.4778 22.3597 46.354 22.49 46.2026 22.583C46.0513 22.6761 45.9275 22.6216 45.9275 22.4623C45.9275 22.303 46.0513 22.1724 46.2026 22.1724C46.354 22.1724 46.4778 22.2266 46.4778 22.2932ZM4.23149 22.9748C4.31871 23.1149 4.26395 23.3068 4.11015 23.4015C3.95634 23.4959 3.8306 23.3813 3.8306 23.1467C3.8306 22.6657 3.99569 22.5951 4.23149 22.9748ZM57.4835 23.1144C57.4835 23.1809 57.3597 23.3112 57.2084 23.4042C57.057 23.4973 56.9332 23.4428 56.9332 23.2835C56.9332 23.1242 57.057 22.9936 57.2084 22.9936C57.3597 22.9936 57.4835 23.0478 57.4835 23.1144ZM17.8629 23.5411C17.8629 23.6917 17.8084 23.8148 17.7416 23.8148C17.6747 23.8148 17.5437 23.6917 17.4502 23.5411C17.3566 23.3906 17.4114 23.2674 17.5715 23.2674C17.7317 23.2674 17.8629 23.3906 17.8629 23.5411ZM11.8098 24.2254C11.8098 24.4513 11.6859 24.636 11.5346 24.636C11.3833 24.636 11.2595 24.4513 11.2595 24.2254C11.2595 23.9996 11.3833 23.8148 11.5346 23.8148C11.6859 23.8148 11.8098 23.9996 11.8098 24.2254ZM6.58204 24.3623C6.58204 24.5129 6.45822 24.636 6.30689 24.636C6.15556 24.636 6.03175 24.5129 6.03175 24.3623C6.03175 24.2118 6.15556 24.0886 6.30689 24.0886C6.45822 24.0886 6.58204 24.2118 6.58204 24.3623ZM8.98376 24.2539C8.89241 24.3448 8.65496 24.3546 8.45658 24.2755C8.23702 24.1882 8.30223 24.1233 8.62277 24.1102C8.91277 24.0984 9.07511 24.163 8.98376 24.2539ZM4.28789 25.7994C4.21168 25.9877 4.14922 25.8336 4.14922 25.4572C4.14922 25.0809 4.21168 24.927 4.28789 25.1151C4.36438 25.3034 4.36438 25.6114 4.28789 25.7994ZM3.28032 25.731C3.28032 25.8815 3.1565 26.0047 3.00517 26.0047C2.85385 26.0047 2.73003 25.8815 2.73003 25.731C2.73003 25.5804 2.85385 25.4572 3.00517 25.4572C3.1565 25.4572 3.28032 25.5804 3.28032 25.731ZM4.75921 27.8656C4.83378 27.9857 4.78425 28.2617 4.64943 28.479C4.46371 28.7779 4.32614 28.7971 4.08621 28.5584C3.9115 28.3846 3.85179 28.1084 3.95332 27.9447C4.17068 27.5948 4.56689 27.556 4.75921 27.8656ZM40.5484 40.2052C40.1115 40.606 37.3408 41.5246 35.9679 41.7233C34.4328 41.9456 31.8157 41.5197 30.1805 40.7811C29.5347 40.4896 28.8573 40.2482 28.6755 40.2449C28.4936 40.2416 27.8883 41.0089 27.3306 41.9497C26.7729 42.8908 24.3986 46.9248 22.055 50.9145C19.711 54.9042 17.5462 58.5166 17.2441 58.9423C16.9258 59.3907 16.797 59.818 16.9379 59.9581C17.5283 60.5455 25.6192 63.3234 29.1438 64.1484C34.2276 65.3389 36.0243 65.3028 41.3876 63.9037C45.8128 62.7491 53.6315 59.841 53.6315 59.3493C53.6315 59.2034 51.6813 55.8904 49.298 51.987C46.9147 48.0838 44.2967 43.7821 43.4809 42.4277C42.3457 40.5438 41.8576 39.9651 41.4036 39.9651C41.077 39.9651 40.6921 40.073 40.5484 40.2052ZM43.4512 44.6186C43.4512 44.7692 43.32 44.8924 43.1598 44.8924C42.9997 44.8924 42.9449 44.7692 43.0385 44.6186C43.132 44.4681 43.263 44.3449 43.3299 44.3449C43.3967 44.3449 43.4512 44.4681 43.4512 44.6186ZM37.3981 52.1301C37.3981 52.1967 37.2742 52.327 37.1229 52.42C36.9716 52.5131 36.8478 52.4586 36.8478 52.2993C36.8478 52.14 36.9716 52.0094 37.1229 52.0094C37.2742 52.0094 37.3981 52.0636 37.3981 52.1301ZM38.9744 60.9343C38.883 61.0251 38.6456 61.035 38.4472 60.9559C38.2276 60.8686 38.2928 60.8037 38.6134 60.7905C38.9034 60.7788 39.0657 60.8434 38.9744 60.9343Z" fill="white"/>
</svg>
