<svg width="70" height="70" viewBox="0 0 70 70" fill="none" xmlns="http://www.w3.org/2000/svg">
<path fill-rule="evenodd" clip-rule="evenodd" d="M25.9613 0.991867C20.0233 2.55328 15.2204 5.29907 10.6785 9.72857C-0.185737 20.3235 -3.09073 36.7338 3.49218 50.3283C4.34299 52.0856 5.55041 54.1672 6.17461 54.9542C9.83482 59.5679 10.8131 60.6437 12.9937 62.4527C16.1395 65.0615 22.6476 68.2595 26.7843 69.2292C28.5926 69.6534 32.3484 70 35.1305 70C37.9126 70 41.6684 69.6534 43.4768 69.2292C55.3289 66.4509 65.7749 56.2117 69.077 44.1355C70.3203 39.5898 70.3046 29.828 69.0476 25.6137C67.1831 19.3624 64.01 14.0754 59.5805 9.83818C55.7766 6.19928 54.1468 5.06209 52.7365 5.06209C52.0623 5.06209 51.6283 4.87079 51.7724 4.63635C52.213 3.92135 48.3242 2.05141 44.1925 0.99136C39.0391 -0.330538 30.9893 -0.330538 25.9613 0.991867ZM43.7312 3.02723C55.684 6.43778 64.3758 15.4668 67.2383 27.4471C69.1144 35.2978 68.2312 42.4112 64.4112 50.2101C60.5243 58.1471 51.1943 65.4127 42.5207 67.2567C38.1316 68.1899 31.3914 68.1625 27.2977 67.1948C20.2661 65.5324 13.0499 60.7477 8.78471 54.9197C7.34915 52.9579 6.5985 52.3322 5.93484 52.5433C5.00512 52.8397 4.58073 51.4889 5.49882 51.155C5.75477 51.0621 5.3931 49.6321 4.69454 47.9773C-2.20907 31.6152 5.24641 12.0649 21.1103 4.93219C27.975 1.8459 36.9429 1.09031 43.7312 3.02723ZM27.4064 10.8921C18.9221 13.2832 12.7904 19.6725 10.461 28.5487C9.44482 32.4231 9.08366 33.133 7.70071 33.9764C5.97025 35.0319 4.80633 36.7592 5.29294 37.5493C5.79625 38.3658 6.60103 38.1187 7.60409 36.8399C8.9228 35.1582 10.2693 34.9431 12.4616 36.0645C14.967 37.3453 16.0201 36.4822 14.0459 34.766C13.2998 34.1175 12.3893 33.4852 12.0225 33.3619C11.4869 33.1812 11.541 32.4008 12.2992 29.3754C14.315 21.3354 19.6652 15.5231 27.2168 13.1685C39.2647 9.41243 52.8504 16.6745 57.1322 29.1592C58.5051 33.1635 58.411 34.0489 56.4822 35.2633C54.8934 36.264 53.9516 38.5535 55.1291 38.5535C55.4559 38.5535 56.4185 37.9669 57.2678 37.2499C59.0043 35.7844 60.6751 35.8889 62.4779 37.5762C63.7961 38.8098 64.2159 38.8093 64.2159 37.5757C64.2159 36.6998 62.4055 34.8203 61.1582 34.4011C60.8951 34.3123 60.2077 32.5276 59.63 30.4344C59.0524 28.3412 57.8707 25.3853 57.0042 23.865C54.9895 20.3306 50.8589 15.9798 50.0147 16.503C49.6373 16.7369 49.5194 16.6806 49.7167 16.3609C50.1704 15.6241 47.3803 13.6491 43.4768 11.9456C40.7584 10.7592 39.3122 10.4786 35.1305 10.3253C31.6898 10.2 29.2199 10.3811 27.4064 10.8921ZM22.944 39.3147C21.253 41.9037 21.4047 50.61 23.1787 52.8077C23.9293 53.7379 24.2414 53.8201 25.157 53.3284C26.6775 52.5119 27.4439 49.1886 27.1788 44.5587C26.851 38.826 24.8672 36.37 22.944 39.3147ZM44.624 38.6804C43.5916 40.0048 42.9709 42.8922 42.9719 46.3677C42.9729 52.2785 45.3357 55.5413 47.3651 52.4347C48.6793 50.4222 48.6934 41.4221 47.3853 39.4193C46.4182 37.9385 45.4121 37.6691 44.624 38.6804Z" fill="white"/>
</svg>
